<svg xmlns="http://www.w3.org/2000/svg" xmlns:xlink="http://www.w3.org/1999/xlink" width="25" height="25" viewBox="0 0 25 25">
  <defs>
    <clipPath id="clip-path">
      <rect id="Rectángulo_14" data-name="Rectángulo 14" width="25" height="25" transform="translate(-0.229 0.048)" fill="#fff"/>
    </clipPath>
  </defs>
  <g id="Enmascarar_grupo_8" data-name="Enmascarar grupo 8" transform="translate(0.229 -0.048)" clip-path="url(#clip-path)">
    <path id="redes-sociales" d="M12.5,0A12.5,12.5,0,1,0,25,12.5,12.514,12.514,0,0,0,12.5,0ZM1.26,12.5a11.148,11.148,0,0,1,.973-4.572L7.6,22.615A11.244,11.244,0,0,1,1.26,12.5ZM12.5,23.74a11.168,11.168,0,0,1-3.175-.459l3.372-9.8,3.453,9.466a1.69,1.69,0,0,0,.08.156,11.254,11.254,0,0,1-3.73.635ZM14.047,7.234h0c.675-.035,1.284-.105,1.284-.105A.466.466,0,0,0,15.26,6.2s-1.82.141-2.994.141c-1.1,0-2.959-.141-2.959-.141a.466.466,0,0,0-.07.928s.574.071,1.179.105l1.749,4.8L9.706,19.405,5.615,7.233C6.291,7.2,6.9,7.128,6.9,7.128A.466.466,0,0,0,6.829,6.2s-1.82.141-2.994.141c-.211,0-.459-.005-.726-.015A11.241,11.241,0,0,1,20.091,4.208a1.388,1.388,0,0,0-.146-.009,1.945,1.945,0,0,0-1.885,2,5.267,5.267,0,0,0,1.1,2.636,5.9,5.9,0,0,1,.928,3.1,13.483,13.483,0,0,1-.857,3.634l-1.12,3.745Zm8.318-.127a11.241,11.241,0,0,1-4.214,15.106h0l3.432-9.925A10.641,10.641,0,0,0,22.44,8.26a8.324,8.324,0,0,0-.075-1.153Z" transform="translate(0.603 -0.276)"/>
  </g>
</svg>
