<svg xmlns="http://www.w3.org/2000/svg" xmlns:xlink="http://www.w3.org/1999/xlink" width="40" height="40" viewBox="0 0 40 40">
  <defs>
    <clipPath id="clip-path">
      <rect id="Rectángulo_22" data-name="Rectángulo 22" width="40" height="40" transform="translate(21.067 80.886)" fill="#fff" stroke="#707070" stroke-width="1"/>
    </clipPath>
  </defs>
  <g id="Enmascarar_grupo_15" data-name="Enmascarar grupo 15" transform="translate(-21.067 -80.886)" clip-path="url(#clip-path)">
    <g id="icon" transform="translate(20.982 81.023)">
      <g id="Grupo_60" data-name="Grupo 60" transform="translate(4.184)">
        <g id="Grupo_59" data-name="Grupo 59">
          <path id="Trazado_49" data-name="Trazado 49" d="M37.729.1a.775.775,0,0,0-.778.006L22.753,8.5a.774.774,0,1,0,.789,1.333l10.186-6.02L14.754,23.488,5.318,20.6l12.316-7.279a.774.774,0,1,0-.789-1.333L3.017,20.163a.774.774,0,0,0,.168,1.407l11.27,3.446,4.972,9.045a.183.183,0,0,0,.016.024.773.773,0,0,0,1.2.157l5.717-5.585,10.754,3.288a.775.775,0,0,0,1-.74V.774A.774.774,0,0,0,37.729.1ZM19.469,25.493a.774.774,0,0,0-.138.441v4.737l-3.4-6.176L30.96,8.914Zm1.412,6.356V26.981l3.8,1.161Zm15.689-1.69L21.347,25.5,36.57,3.539Z" transform="translate(-2.637 0)"/>
        </g>
      </g>
      <g id="Grupo_62" data-name="Grupo 62" transform="translate(4.183 26.687)">
        <g id="Grupo_61" data-name="Grupo 61">
          <path id="Trazado_50" data-name="Trazado 50" d="M11.192,17.055a.775.775,0,0,0-1.1,0L2.864,24.284a.775.775,0,0,0,1.1,1.1l7.232-7.229A.774.774,0,0,0,11.192,17.055Z" transform="translate(-2.637 -16.829)"/>
        </g>
      </g>
      <g id="Grupo_64" data-name="Grupo 64" transform="translate(0 36.316)">
        <g id="Grupo_63" data-name="Grupo 63">
          <path id="Trazado_51" data-name="Trazado 51" d="M3.1,23.127a.775.775,0,0,0-1.1,0L.227,24.908a.775.775,0,0,0,1.1,1.1L3.1,24.222A.774.774,0,0,0,3.1,23.127Z" transform="translate(0 -22.9)"/>
        </g>
      </g>
      <g id="Grupo_66" data-name="Grupo 66" transform="translate(9.729 38.052)">
        <g id="Grupo_65" data-name="Grupo 65">
          <path id="Trazado_52" data-name="Trazado 52" d="M7.454,24.221a.773.773,0,1,0,.227.547A.78.78,0,0,0,7.454,24.221Z" transform="translate(-6.132 -23.995)"/>
        </g>
      </g>
      <g id="Grupo_68" data-name="Grupo 68" transform="translate(11.662 32.29)">
        <g id="Grupo_67" data-name="Grupo 67">
          <path id="Trazado_53" data-name="Trazado 53" d="M12.5,20.588a.775.775,0,0,0-1.1,0L7.577,24.417a.775.775,0,0,0,1.1,1.1L12.5,21.683A.774.774,0,0,0,12.5,20.588Z" transform="translate(-7.35 -20.362)"/>
        </g>
      </g>
      <g id="Grupo_70" data-name="Grupo 70" transform="translate(24.873 31.996)">
        <g id="Grupo_69" data-name="Grupo 69">
          <path id="Trazado_54" data-name="Trazado 54" d="M20.84,20.4a.775.775,0,0,0-1.1,0L15.9,24.242a.775.775,0,0,0,1.1,1.1L20.84,21.5A.774.774,0,0,0,20.84,20.4Z" transform="translate(-15.676 -20.176)"/>
        </g>
      </g>
      <g id="Grupo_72" data-name="Grupo 72" transform="translate(20.641 10.328)">
        <g id="Grupo_71" data-name="Grupo 71">
          <path id="Trazado_55" data-name="Trazado 55" d="M14.332,6.74a.774.774,0,1,0,.227.548A.781.781,0,0,0,14.332,6.74Z" transform="translate(-13.009 -6.513)"/>
        </g>
      </g>
    </g>
  </g>
</svg>
