<svg xmlns="http://www.w3.org/2000/svg" xmlns:xlink="http://www.w3.org/1999/xlink" width="25" height="25" viewBox="0 0 25 25">
  <defs>
    <clipPath id="clip-path">
      <rect id="Rectángulo_28" data-name="Rectángulo 28" width="25" height="25" transform="translate(21 81)" fill="#fff" stroke="#707070" stroke-width="1"/>
    </clipPath>
  </defs>
  <g id="Enmascarar_grupo_21" data-name="Enmascarar grupo 21" transform="translate(-21 -81)" clip-path="url(#clip-path)">
    <g id="icon" transform="translate(21 81)">
      <g id="Grupo_150" data-name="Grupo 150" transform="translate(2.637)">
        <g id="Grupo_149" data-name="Grupo 149">
          <path id="Trazado_96" data-name="Trazado 96" d="M24.754.064a.488.488,0,0,0-.49,0L15.315,5.359a.488.488,0,1,0,.5.841l6.42-3.8L10.274,14.811l-5.948-1.82L12.088,8.4a.488.488,0,0,0-.5-.841L2.876,12.714a.488.488,0,0,0,.106.887l7.1,2.173,3.134,5.7.01.015a.487.487,0,0,0,.759.1l3.6-3.521,6.778,2.074A.488.488,0,0,0,25,19.678V.488A.488.488,0,0,0,24.754.064ZM13.245,16.076a.488.488,0,0,0-.087.278v2.987l-2.14-3.895,9.469-9.825Zm.89,4.008v-3.07l2.392.732Zm9.888-1.066-9.595-2.935L24.023,2.232Z" transform="translate(-2.637 0)"/>
        </g>
      </g>
      <g id="Grupo_152" data-name="Grupo 152" transform="translate(2.637 16.829)">
        <g id="Grupo_151" data-name="Grupo 151">
          <path id="Trazado_97" data-name="Trazado 97" d="M8.028,16.972a.488.488,0,0,0-.691,0L2.78,21.53a.488.488,0,0,0,.691.691l4.558-4.558A.488.488,0,0,0,8.028,16.972Z" transform="translate(-2.637 -16.829)"/>
        </g>
      </g>
      <g id="Grupo_154" data-name="Grupo 154" transform="translate(0 22.9)">
        <g id="Grupo_153" data-name="Grupo 153">
          <path id="Trazado_98" data-name="Trazado 98" d="M1.957,23.043a.488.488,0,0,0-.691,0L.143,24.166a.488.488,0,1,0,.691.691l1.123-1.123A.488.488,0,0,0,1.957,23.043Z" transform="translate(0 -22.9)"/>
        </g>
      </g>
      <g id="Grupo_156" data-name="Grupo 156" transform="translate(6.132 23.995)">
        <g id="Grupo_155" data-name="Grupo 155">
          <path id="Trazado_99" data-name="Trazado 99" d="M6.965,24.138a.488.488,0,1,0,.143.345A.492.492,0,0,0,6.965,24.138Z" transform="translate(-6.132 -23.995)"/>
        </g>
      </g>
      <g id="Grupo_158" data-name="Grupo 158" transform="translate(7.35 20.362)">
        <g id="Grupo_157" data-name="Grupo 157">
          <path id="Trazado_100" data-name="Trazado 100" d="M10.6,20.5a.488.488,0,0,0-.691,0L7.493,22.919a.488.488,0,1,0,.691.691L10.6,21.2A.488.488,0,0,0,10.6,20.5Z" transform="translate(-7.35 -20.362)"/>
        </g>
      </g>
      <g id="Grupo_160" data-name="Grupo 160" transform="translate(15.676 20.176)">
        <g id="Grupo_159" data-name="Grupo 159">
          <path id="Trazado_101" data-name="Trazado 101" d="M18.931,20.319a.488.488,0,0,0-.691,0L15.819,22.74a.488.488,0,1,0,.691.691l2.421-2.421A.488.488,0,0,0,18.931,20.319Z" transform="translate(-15.676 -20.176)"/>
        </g>
      </g>
      <g id="Grupo_162" data-name="Grupo 162" transform="translate(13.009 6.513)">
        <g id="Grupo_161" data-name="Grupo 161">
          <path id="Trazado_102" data-name="Trazado 102" d="M13.843,6.656A.488.488,0,1,0,13.986,7,.492.492,0,0,0,13.843,6.656Z" transform="translate(-13.009 -6.513)"/>
        </g>
      </g>
    </g>
  </g>
</svg>
