<svg xmlns="http://www.w3.org/2000/svg" xmlns:xlink="http://www.w3.org/1999/xlink" width="13" height="13" viewBox="0 0 13 13">
  <defs>
    <clipPath id="clip-path">
      <rect id="Rectángulo_3" data-name="Rectángulo 3" width="13" height="13" transform="translate(0 -0.372)" fill="#fff" stroke="#707070" stroke-width="1"/>
    </clipPath>
  </defs>
  <g id="Enmascarar_grupo_3" data-name="Enmascarar grupo 3" transform="translate(0 0.372)" clip-path="url(#clip-path)">
    <g id="logo" transform="translate(0.138)">
      <path id="Trazado_4" data-name="Trazado 4" d="M15.473,15.209h0V10.441c0-2.332-.5-4.129-3.229-4.129a2.831,2.831,0,0,0-2.55,1.4H9.66V6.529H7.074v8.679H9.766v-4.3c0-1.132.214-2.226,1.616-2.226,1.381,0,1.4,1.291,1.4,2.3v4.226Z" transform="translate(-2.476 -2.209)" fill="#fff" stroke="#707070" stroke-width="0.833"/>
      <path id="Trazado_5" data-name="Trazado 5" d="M.33,6.647h2.7v8.679H.33Z" transform="translate(-0.115 -2.327)" fill="#fff" stroke="#707070" stroke-width="0.833"/>
      <path id="Trazado_6" data-name="Trazado 6" d="M1.561,0A1.568,1.568,0,1,0,3.122,1.561,1.562,1.562,0,0,0,1.561,0Z" fill="#fff" stroke="#707070" stroke-width="0.833"/>
    </g>
  </g>
</svg>
