<svg xmlns="http://www.w3.org/2000/svg" xmlns:xlink="http://www.w3.org/1999/xlink" width="25" height="25" viewBox="0 0 25 25">
  <defs>
    <clipPath id="clip-path">
      <rect id="Rectángulo_7" data-name="Rectángulo 7" width="25" height="25" fill="#fff" stroke="#707070" stroke-width="1"/>
    </clipPath>
  </defs>
  <g id="Enmascarar_grupo_7" data-name="Enmascarar grupo 7" clip-path="url(#clip-path)">
    <g id="multimedia_1_" data-name="multimedia (1)" transform="translate(0 4.688)">
      <g id="Grupo_13" data-name="Grupo 13">
        <g id="Grupo_12" data-name="Grupo 12">
          <path id="Trazado_13" data-name="Trazado 13" d="M24.479,7.5H.521a.521.521,0,1,0,0,1.042H24.479a.521.521,0,1,0,0-1.042Z" transform="translate(0 -7.5)"/>
        </g>
      </g>
      <g id="Grupo_15" data-name="Grupo 15" transform="translate(0 7.292)">
        <g id="Grupo_14" data-name="Grupo 14">
          <path id="Trazado_14" data-name="Trazado 14" d="M24.479,19.167H.521a.521.521,0,1,0,0,1.042H24.479a.521.521,0,1,0,0-1.042Z" transform="translate(0 -19.167)"/>
        </g>
      </g>
      <g id="Grupo_17" data-name="Grupo 17" transform="translate(0 14.583)">
        <g id="Grupo_16" data-name="Grupo 16">
          <path id="Trazado_15" data-name="Trazado 15" d="M24.479,30.833H.521a.521.521,0,1,0,0,1.042H24.479a.521.521,0,1,0,0-1.042Z" transform="translate(0 -30.833)"/>
        </g>
      </g>
    </g>
  </g>
</svg>
