<svg xmlns="http://www.w3.org/2000/svg" xmlns:xlink="http://www.w3.org/1999/xlink" width="25" height="25" viewBox="0 0 25 25">
  <defs>
    <clipPath id="clip-path">
      <rect id="Rectángulo_6" data-name="Rectángulo 6" width="25" height="25" transform="translate(0.349)" fill="#fff" stroke="#707070" stroke-width="1"/>
    </clipPath>
  </defs>
  <g id="Enmascarar_grupo_6" data-name="Enmascarar grupo 6" transform="translate(-0.349)" clip-path="url(#clip-path)">
    <g id="multimedia_1_" data-name="multimedia (1)" transform="translate(0.335 4.688)">
      <g id="Grupo_7" data-name="Grupo 7">
        <g id="Grupo_6" data-name="Grupo 6">
          <path id="Trazado_10" data-name="Trazado 10" d="M24.479,7.5H.521a.521.521,0,1,0,0,1.042H24.479a.521.521,0,1,0,0-1.042Z" transform="translate(0 -7.5)"/>
        </g>
      </g>
      <g id="Grupo_9" data-name="Grupo 9" transform="translate(0 7.292)">
        <g id="Grupo_8" data-name="Grupo 8">
          <path id="Trazado_11" data-name="Trazado 11" d="M24.479,19.167H.521a.521.521,0,1,0,0,1.042H24.479a.521.521,0,1,0,0-1.042Z" transform="translate(0 -19.167)"/>
        </g>
      </g>
      <g id="Grupo_11" data-name="Grupo 11" transform="translate(0 14.583)">
        <g id="Grupo_10" data-name="Grupo 10">
          <path id="Trazado_12" data-name="Trazado 12" d="M24.479,30.833H.521a.521.521,0,1,0,0,1.042H24.479a.521.521,0,1,0,0-1.042Z" transform="translate(0 -30.833)"/>
        </g>
      </g>
    </g>
  </g>
</svg>
