<svg xmlns="http://www.w3.org/2000/svg" xmlns:xlink="http://www.w3.org/1999/xlink" width="17" height="17" viewBox="0 0 17 17">
  <defs>
    <clipPath id="clip-path">
      <rect id="Rectángulo_1" data-name="Rectángulo 1" width="17" height="17" transform="translate(0 -0.21)" fill="none"/>
    </clipPath>
  </defs>
  <g id="Enmascarar_grupo_1" data-name="Enmascarar grupo 1" transform="translate(0 0.21)" clip-path="url(#clip-path)">
    <g id="social-media" transform="translate(-0.011 1.798)">
      <path id="Trazado_1" data-name="Trazado 1" d="M8.705,16.061c2.642,0,6.332.064,7.675-2.622A7.524,7.524,0,0,0,17,10.111h0a6,6,0,0,0-1.381-4,5.354,5.354,0,0,0,.273-1.689A3.43,3.43,0,0,0,15.374,2.6a5.508,5.508,0,0,0-3.818,1.234,12.368,12.368,0,0,0-2.847-.322,13.714,13.714,0,0,0-3.141.351A5.571,5.571,0,0,0,1.713,2.6,3.468,3.468,0,0,0,1.2,4.419a5.434,5.434,0,0,0,.273,1.71A5.991,5.991,0,0,0,0,10.111a7.448,7.448,0,0,0,.715,3.33c1.4,2.716,5.305,2.621,7.99,2.621ZM4.959,8.985a14.432,14.432,0,0,1,1.983.21c2.421.368,3.694-.21,5.178-.21a2.659,2.659,0,0,1,2.6,2.895c0,3.081-2.844,3.55-5.334,3.55H7.683c-2.479,0-5.327-.472-5.327-3.55a2.658,2.658,0,0,1,2.6-2.895Z" transform="translate(0 -2.603)" fill="#fff"/>
      <path id="Trazado_2" data-name="Trazado 2" d="M16.737,17.268c.914,0,1.3-1.2,1.3-1.932s-.386-1.932-1.3-1.932-1.3,1.2-1.3,1.932.386,1.932,1.3,1.932Z" transform="translate(-4.94 -6.06)" fill="#fff"/>
      <path id="Trazado_3" data-name="Trazado 3" d="M7.17,17.269c.914,0,1.3-1.2,1.3-1.932s-.387-1.931-1.3-1.931-1.3,1.2-1.3,1.932S6.256,17.269,7.17,17.269Z" transform="translate(-1.878 -6.06)" fill="#fff"/>
    </g>
  </g>
</svg>
