<svg xmlns="http://www.w3.org/2000/svg" xmlns:xlink="http://www.w3.org/1999/xlink" width="30" height="30" viewBox="0 0 30 30">
  <defs>
    <clipPath id="clip-path">
      <rect id="Rectángulo_6" data-name="Rectángulo 6" width="30" height="30" transform="translate(290 19)" fill="#fff" stroke="#707070" stroke-width="1"/>
    </clipPath>
  </defs>
  <g id="Enmascarar_grupo_6" data-name="Enmascarar grupo 6" transform="translate(-290 -19)" clip-path="url(#clip-path)">
    <g id="multimedia_1_" data-name="multimedia (1)" transform="translate(290 24.625)">
      <g id="Grupo_7" data-name="Grupo 7">
        <g id="Grupo_6" data-name="Grupo 6">
          <path id="Trazado_10" data-name="Trazado 10" d="M29.375,7.5H.625a.625.625,0,1,0,0,1.25h28.75a.625.625,0,1,0,0-1.25Z" transform="translate(0 -7.5)"/>
        </g>
      </g>
      <g id="Grupo_9" data-name="Grupo 9" transform="translate(0 8.75)">
        <g id="Grupo_8" data-name="Grupo 8">
          <path id="Trazado_11" data-name="Trazado 11" d="M29.375,19.167H.625a.625.625,0,1,0,0,1.25h28.75a.625.625,0,1,0,0-1.25Z" transform="translate(0 -19.167)"/>
        </g>
      </g>
      <g id="Grupo_11" data-name="Grupo 11" transform="translate(0 17.5)">
        <g id="Grupo_10" data-name="Grupo 10">
          <path id="Trazado_12" data-name="Trazado 12" d="M29.375,30.833H.625a.625.625,0,1,0,0,1.25h28.75a.625.625,0,1,0,0-1.25Z" transform="translate(0 -30.833)"/>
        </g>
      </g>
    </g>
  </g>
</svg>
