<svg xmlns="http://www.w3.org/2000/svg" xmlns:xlink="http://www.w3.org/1999/xlink" width="25" height="25" viewBox="0 0 25 25">
  <defs>
    <clipPath id="clip-path">
      <rect id="Rectángulo_9" data-name="Rectángulo 9" width="25" height="25" fill="#fff"/>
    </clipPath>
  </defs>
  <g id="Enmascarar_grupo_9" data-name="Enmascarar grupo 9" clip-path="url(#clip-path)">
    <g id="computadora" transform="translate(-0.626 0.257)">
      <path id="Trazado_17" data-name="Trazado 17" d="M8.468,10.081V6.048a1.613,1.613,0,1,0-3.226,0v4.032h.806V8.468H7.661v1.613ZM6.048,7.661V6.048a.806.806,0,1,1,1.613,0V7.661Z" transform="translate(-0.403 -0.403)"/>
      <path id="Trazado_18" data-name="Trazado 18" d="M10.887,7.661a1.613,1.613,0,0,0,0-3.226H9.274v5.645h.806V7.661Zm-.806-2.419h.806a.806.806,0,0,1,0,1.613h-.806Z" transform="translate(-0.403 -0.403)"/>
      <path id="Trazado_19" data-name="Trazado 19" d="M12.9,9.274v.806h2.419V9.274h-.806V5.242h.806V4.435H12.9v.806h.806V9.274Z" transform="translate(-0.403 -0.403)"/>
      <path id="Trazado_20" data-name="Trazado 20" d="M25.4,17.255V14.2l-1.062-.25a6.413,6.413,0,0,0-.557-1.344l.575-.928L22.2,9.513l-.928.575a6.47,6.47,0,0,0-.749-.348,2.412,2.412,0,0,0-1.972-2.848c0-.012,0-.024,0-.036a4.037,4.037,0,0,0-4.032-4.032,3.98,3.98,0,0,0-1.47.279,5.235,5.235,0,0,0-9.8,2.166,3.225,3.225,0,0,0,.384,6.427h.806v4.59l-1.613.806v2.669h.806v-2.17l1.613-.806V10.887H3.629A2.419,2.419,0,1,1,4.32,6.149l.23-.773a3.231,3.231,0,0,0-.5-.1A4.431,4.431,0,0,1,12.5,3.8l.176.383.375-.192a3.187,3.187,0,0,1,1.47-.357,3.23,3.23,0,0,1,3.226,3.226c0,.012,0,.023,0,.035a2.4,2.4,0,0,0-1.034.439l.48.648a1.613,1.613,0,1,1,.959,2.91H7.661v5.894l1.613.806v2.17h.806V17.09l-1.613-.806v-4.59H12.2l.33.866a6.391,6.391,0,0,0-.581,1.387l-1.063.25v3.058l1.063.25a6.413,6.413,0,0,0,.557,1.344l-.575.928,2.163,2.163.928-.575a6.392,6.392,0,0,0,1.344.557l.25,1.063h3.058l.25-1.062a6.413,6.413,0,0,0,1.344-.557l.928.575,2.163-2.162-.575-.928a6.392,6.392,0,0,0,.557-1.344Zm-1.723-.423-.059.24a5.6,5.6,0,0,1-.653,1.574l-.128.211.5.8-1.259,1.259-.8-.5-.211.128a5.608,5.608,0,0,1-1.574.653l-.24.059-.215.916H17.255l-.216-.916L16.8,21.2a5.6,5.6,0,0,1-1.574-.653l-.211-.128-.8.5-1.259-1.259.5-.8-.128-.211a5.61,5.61,0,0,1-.653-1.574l-.059-.24-.916-.215V14.835l.916-.216.059-.24a5.6,5.6,0,0,1,.653-1.574l.1-.168-.359-.944h2.412a4.839,4.839,0,1,0,4.206-.552,2.44,2.44,0,0,0,.548-.646,5.623,5.623,0,0,1,.835.406l.211.128.8-.5,1.259,1.259-.5.8.128.211a5.61,5.61,0,0,1,.653,1.574l.059.24.915.215v1.781Zm-5.535-5.138a4.032,4.032,0,1,1-4.032,4.032A4.037,4.037,0,0,1,18.145,11.694Z" transform="translate(-0.403 -0.403)"/>
      <path id="Trazado_21" data-name="Trazado 21" d="M18.145,18.952a3.226,3.226,0,1,0-3.226-3.226A3.23,3.23,0,0,0,18.145,18.952Zm0-5.645a2.419,2.419,0,1,1-2.419,2.419A2.422,2.422,0,0,1,18.145,13.306Z" transform="translate(-0.403 -0.403)"/>
      <path id="Trazado_22" data-name="Trazado 22" d="M2.823,20.565h.806v.806H2.823Z" transform="translate(-0.403 -0.403)"/>
      <path id="Trazado_23" data-name="Trazado 23" d="M9.274,20.565h.806v.806H9.274Z" transform="translate(-0.403 -0.403)"/>
      <path id="Trazado_24" data-name="Trazado 24" d="M3.629,23.058v-.881H2.823v.881a1.21,1.21,0,1,0,.806,0Zm-.4,1.539a.4.4,0,1,1,.4-.4A.4.4,0,0,1,3.226,24.6Z" transform="translate(-0.403 -0.403)"/>
      <path id="Trazado_25" data-name="Trazado 25" d="M10.081,23.058v-.881H9.274v.881a1.21,1.21,0,1,0,.806,0Zm-.4,1.539a.4.4,0,1,1,.4-.4A.4.4,0,0,1,9.677,24.6Z" transform="translate(-0.403 -0.403)"/>
      <path id="Trazado_26" data-name="Trazado 26" d="M6.855,20.235v-4.51H6.048v4.51a1.21,1.21,0,1,0,.806,0Zm-.4,1.539a.4.4,0,1,1,.4-.4A.4.4,0,0,1,6.452,21.774Z" transform="translate(-0.403 -0.403)"/>
      <path id="Trazado_27" data-name="Trazado 27" d="M6.048,10.887h.806v.806H6.048Z" transform="translate(-0.403 -0.403)"/>
      <path id="Trazado_28" data-name="Trazado 28" d="M6.048,12.5h.806v.806H6.048Z" transform="translate(-0.403 -0.403)"/>
      <path id="Trazado_29" data-name="Trazado 29" d="M6.048,14.113h.806v.806H6.048Z" transform="translate(-0.403 -0.403)"/>
    </g>
  </g>
</svg>
