<svg xmlns="http://www.w3.org/2000/svg" xmlns:xlink="http://www.w3.org/1999/xlink" width="30" height="30" viewBox="0 0 30 30">
  <defs>
    <clipPath id="clip-path">
      <rect id="Rectángulo_7" data-name="Rectángulo 7" width="30" height="30" transform="translate(0 0.5)" fill="#fff" stroke="#707070" stroke-width="1"/>
    </clipPath>
  </defs>
  <g id="Enmascarar_grupo_7" data-name="Enmascarar grupo 7" transform="translate(0 -0.5)" clip-path="url(#clip-path)">
    <g id="multimedia_1_" data-name="multimedia (1)" transform="translate(0 6.098)">
      <g id="Grupo_13" data-name="Grupo 13">
        <g id="Grupo_12" data-name="Grupo 12">
          <path id="Trazado_13" data-name="Trazado 13" d="M29.375,7.5H.625a.625.625,0,1,0,0,1.25h28.75a.625.625,0,1,0,0-1.25Z" transform="translate(0 -7.5)"/>
        </g>
      </g>
      <g id="Grupo_15" data-name="Grupo 15" transform="translate(0 8.75)">
        <g id="Grupo_14" data-name="Grupo 14">
          <path id="Trazado_14" data-name="Trazado 14" d="M29.375,19.167H.625a.625.625,0,1,0,0,1.25h28.75a.625.625,0,1,0,0-1.25Z" transform="translate(0 -19.167)"/>
        </g>
      </g>
      <g id="Grupo_17" data-name="Grupo 17" transform="translate(0 17.5)">
        <g id="Grupo_16" data-name="Grupo 16">
          <path id="Trazado_15" data-name="Trazado 15" d="M29.375,30.833H.625a.625.625,0,1,0,0,1.25h28.75a.625.625,0,1,0,0-1.25Z" transform="translate(0 -30.833)"/>
        </g>
      </g>
    </g>
  </g>
</svg>
